<?xml version="1.0" encoding="UTF-8"?>
<svg id="Layer_1" xmlns="http://www.w3.org/2000/svg" version="1.1" viewBox="0 0 200 110">
  <!-- Generator: Adobe Illustrator 29.0.1, SVG Export Plug-In . SVG Version: 2.1.0 Build 192)  -->
  <defs>
    <style>
      .st0 {
        fill: #ed80a8;
      }

      .st1 {
        fill: #74b64a;
      }

      .st2 {
        fill: #bed63a;
      }

      .st3 {
        fill: #aedee4;
      }

      .st4 {
        fill: #bd83ca;
      }

      .st5 {
        fill: #7daed3;
      }

      .st6 {
        fill: #e76e34;
      }

      .st7 {
        fill: #6b6b6b;
      }

      .st8 {
        fill: #fcba63;
      }
    </style>
  </defs>
  <g>
    <path class="st7" d="M9.6,77.8h-.6l-7.1-8.2v8.2h-.7v-9.4h.6l7.1,8.2v-8.2h.7s0,9.4,0,9.4Z"/>
    <path class="st7" d="M16.1,77.3h-.1c-.6.6-.9.7-1.1.7-.3,0-.4-.2-.4-.8-.7.5-1.3.8-1.9.8-.9,0-1.7-.7-1.7-1.6,0-1.6,1.8-2.2,3.6-2.2v-.8c0-.8-.5-1.3-1.4-1.3s-1.2.2-1.9.8v-.7c.8-.5,1.3-.7,2-.7s1.9.3,1.9,1.6v3.9c0,.2,0,.3.2.3s.5-.3.9-.5v.5h-.1ZM14.4,74.7c-1.6,0-2.9.6-2.9,1.7s.5,1,1.2,1,1.1-.2,1.7-.8v-1.9Z"/>
    <path class="st7" d="M17.9,71.7h1.7v.5h-1.7v3.7c0,1.1,0,1.4.9,1.4s.6,0,1.1-.3v.6c-.1,0-.3,0-.6.2-.2,0-.5,0-.7,0-.7,0-1.4-.4-1.4-1.3v-4.4h-1.7v-.5h1.7v-1.5l.5-.6h.2v2.1Z"/>
    <path class="st7" d="M21.3,69.6h-.7v-1.1h.7v1.1ZM21.3,77.8h-.7v-6.2h.7v6.2Z"/>
    <path class="st7" d="M25.6,78c-1.8,0-3.1-1.4-3.1-3.2s1.3-3.2,3.1-3.2,3.1,1.4,3.1,3.2-1.3,3.2-3.1,3.2ZM25.6,72.2c-1.4,0-2.4,1.1-2.4,2.6s1,2.6,2.4,2.6,2.4-1.1,2.4-2.6-1-2.6-2.4-2.6Z"/>
    <path class="st7" d="M30.5,72.7h0c.6-.9,1.2-1.2,2.1-1.2,1.3,0,2.3.9,2.3,2.5v3.8h-.7v-3.5c0-1.4-.6-2.1-1.7-2.1s-1.5.4-2,1.3v4.3h-.7v-6.2h.7s0,1.1,0,1.1Z"/>
    <path class="st7" d="M41.1,77.3h0c-.7.6-1,.7-1.2.7-.3,0-.4-.2-.4-.8-.7.5-1.3.8-1.9.8-.9,0-1.7-.7-1.7-1.6,0-1.6,1.8-2.2,3.6-2.2v-.8c0-.8-.5-1.3-1.4-1.3s-1.2.2-1.9.8v-.7c.8-.5,1.3-.7,2-.7s1.9.3,1.9,1.6v3.9c0,.2,0,.3.2.3s.5-.3.9-.5v.5h0ZM39.5,74.7c-1.6,0-2.9.6-2.9,1.7s.5,1,1.2,1,1.1-.2,1.7-.8c0,0,0-1.9,0-1.9Z"/>
    <path class="st7" d="M42.5,77.8h-.7v-9.4h.7v9.4Z"/>
    <path class="st7" d="M54.9,77.8h-.8l-1.5-3.2h-4.6l-1.5,3.2h-.8l4.3-9.4h.4l4.5,9.4ZM50.3,69.6l-2,4.4h4l-2-4.4Z"/>
    <path class="st7" d="M58.8,72.8c-.7-.5-1.1-.6-1.7-.6s-1.3.5-1.3,1c0,1.5,3.2.9,3.2,3.1s-.9,1.7-2,1.7-1.2-.2-1.9-.6v-.6c.8.4,1.3.6,1.9.6s1.3-.4,1.3-1.1c0-1.5-3.2-1-3.2-3s.9-1.7,2-1.7,1,.2,1.6.5v.7h.1Z"/>
    <path class="st7" d="M63.3,72.8c-.7-.5-1.1-.6-1.7-.6s-1.3.5-1.3,1c0,1.5,3.2.9,3.2,3.1s-.9,1.7-2,1.7-1.2-.2-1.9-.6v-.6c.8.4,1.3.6,1.9.6s1.3-.4,1.3-1.1c0-1.5-3.2-1-3.2-3s.9-1.7,2-1.7,1,.2,1.6.5v.7h.1Z"/>
    <path class="st7" d="M67.3,78c-1.8,0-3.1-1.4-3.1-3.2s1.3-3.2,3.1-3.2,3.1,1.4,3.1,3.2-1.3,3.2-3.1,3.2ZM67.3,72.2c-1.4,0-2.4,1.1-2.4,2.6s1,2.6,2.4,2.6,2.4-1.1,2.4-2.6c0-1.5-1-2.6-2.4-2.6Z"/>
    <path class="st7" d="M75.9,72.6c-.7-.3-1.1-.4-1.6-.4-1.4,0-2.3,1-2.3,2.6s.9,2.5,2.4,2.5,1,0,1.7-.4v.7c-.7.2-1.1.3-1.7.3-1.8,0-3-1.2-3-3.1s1.2-3.3,3-3.3.9,0,1.6.3v.8h0Z"/>
    <path class="st7" d="M77.7,69.6h-.7v-1.1h.7v1.1ZM77.7,77.8h-.7v-6.2h.7v6.2Z"/>
    <path class="st7" d="M84.1,77.3h0c-.7.6-1,.7-1.2.7-.3,0-.4-.2-.4-.8-.7.5-1.3.8-1.9.8-.9,0-1.7-.7-1.7-1.6,0-1.6,1.8-2.2,3.6-2.2v-.8c0-.8-.5-1.3-1.4-1.3s-1.2.2-1.9.8v-.7c.8-.5,1.3-.7,2-.7s1.9.3,1.9,1.6v3.9c0,.2,0,.3.2.3s.5-.3.9-.5v.5h0ZM82.4,74.7c-1.6,0-2.9.6-2.9,1.7s.5,1,1.2,1,1.1-.2,1.7-.8c0,0,0-1.9,0-1.9Z"/>
    <path class="st7" d="M85.9,71.7h1.7v.5h-1.7v3.7c0,1.1,0,1.4.9,1.4s.6,0,1.1-.3v.6c0,0-.3,0-.6.2-.2,0-.5,0-.7,0-.7,0-1.4-.4-1.4-1.3v-4.4h-1.7v-.5h1.7v-1.5l.5-.6h.2v2.1Z"/>
    <path class="st7" d="M89.2,69.6h-.7v-1.1h.7v1.1ZM89.2,77.8h-.7v-6.2h.7v6.2Z"/>
    <path class="st7" d="M93.5,78c-1.8,0-3.1-1.4-3.1-3.2s1.3-3.2,3.1-3.2,3.1,1.4,3.1,3.2c0,1.8-1.3,3.2-3.1,3.2ZM93.5,72.2c-1.4,0-2.4,1.1-2.4,2.6s1,2.6,2.4,2.6,2.4-1.1,2.4-2.6c0-1.5-1-2.6-2.4-2.6Z"/>
    <path class="st7" d="M98.4,72.7h0c.6-.9,1.2-1.2,2.1-1.2,1.3,0,2.3.9,2.3,2.5v3.8h-.7v-3.5c0-1.4-.6-2.1-1.7-2.1s-1.5.4-2,1.3v4.3h-.7v-6.2h.7s0,1.1,0,1.1Z"/>
    <path class="st7" d="M110.5,78c-1.8,0-3.1-1.4-3.1-3.2s1.3-3.2,3.1-3.2,3.1,1.4,3.1,3.2-1.3,3.2-3.1,3.2ZM110.5,72.2c-1.4,0-2.4,1.1-2.4,2.6s1,2.6,2.4,2.6,2.4-1.1,2.4-2.6-1-2.6-2.4-2.6Z"/>
    <path class="st7" d="M118.4,69.2c-.5-.2-.8-.2-1.1-.2-1,0-1.5.6-1.5,1.9v.8h1.2v.5h-1.2v5.6h-.7v-5.6h-1.1v-.5h1.1v-1c0-1.6,1.1-2.3,2.1-2.3s.6,0,1.1.3v.5h.1Z"/>
    <path class="st7" d="M5.6,83.4c-1-.5-1.5-.7-2.1-.7-1.1,0-2,.8-2,1.8,0,2.5,4.5,1.3,4.5,4.6s-1.2,2.6-2.7,2.6-1.6-.3-2.4-.8v-.9c1,.8,1.6,1,2.4,1s2-.8,2-1.9c0-2.7-4.5-1.5-4.5-4.6,0-1.4,1.2-2.5,2.7-2.5s1.4.2,2.2.6v.8h0Z"/>
    <path class="st7" d="M8.3,85.4h1.7v.5h-1.7v3.7c0,1.1,0,1.4.9,1.4s.6,0,1.1-.3v.6c-.1,0-.3,0-.6.2-.2,0-.5,0-.7,0-.7,0-1.4-.4-1.4-1.3v-4.4h-1.6v-.5h1.7v-1.5l.5-.6h.2v2.1h0Z"/>
    <path class="st7" d="M15.8,91h-.1c-.6.6-.9.7-1.1.7-.3,0-.4-.2-.4-.8-.7.5-1.3.8-1.9.8-.9,0-1.7-.7-1.7-1.6,0-1.6,1.8-2.2,3.6-2.2v-.8c0-.8-.5-1.3-1.4-1.3s-1.2.2-1.9.8v-.7c.8-.5,1.3-.7,2-.7s1.9.3,1.9,1.6v3.8c0,.2,0,.3.2.3s.5-.3.9-.5v.6h-.1ZM14.1,88.4c-1.6,0-2.9.6-2.9,1.7s.5,1,1.2,1,1.1-.2,1.7-.8v-1.9Z"/>
    <path class="st7" d="M17,86.4h0c.6-.9,1.2-1.2,2.1-1.2,1.3,0,2.3.9,2.3,2.5v3.8h-.7v-3.5c0-1.4-.6-2.1-1.7-2.1s-1.5.4-2,1.3v4.3h-.7v-6.2h.7v1.1h0Z"/>
    <path class="st7" d="M28.1,91.5h-.7v-.5c-.7.5-1.1.6-1.8.6-1.8,0-3.1-1.4-3.1-3.2s1.3-3.2,3.1-3.2,1.1,0,1.8.5v-3.6h.7v9.4ZM27.4,86.5c-.7-.4-1.2-.6-1.8-.6-1.4,0-2.4,1-2.4,2.5s1.1,2.6,2.6,2.6,1,0,1.7-.6v-3.9h-.1Z"/>
    <path class="st7" d="M30.2,83.3h-.7v-1.1h.7v1.1ZM30.2,91.5h-.7v-6.2h.7v6.2Z"/>
    <path class="st7" d="M32.3,86.4h0c.6-.9,1.2-1.2,2.1-1.2,1.3,0,2.3.9,2.3,2.5v3.8h-.7v-3.5c0-1.4-.6-2.1-1.7-2.1s-1.5.4-2,1.3v4.3h-.7v-6.2h.7s0,1.1,0,1.1Z"/>
    <path class="st7" d="M42.9,85.9h-1.4c.6.5.9,1,.9,1.6,0,2.8-3.5,1.9-3.5,3s4-.3,4,2.3-1,1.8-2.8,1.8-2.7-.8-2.7-1.6.6-1.3,1.8-1.5h0c-.7-.2-1-.5-1-.9s.5-.8,1.2-1h0c-1.2-.4-1.6-1.3-1.6-2,0-1,.6-2.2,2.6-2.2h2.5v.5ZM40.3,91.9c-.8,0-2.3,0-2.3,1.1s.8,1.1,2.1,1.1,2.1-.5,2.1-1.2c0-.8-.8-1-1.9-1ZM40,85.9c-.9,0-1.6.7-1.6,1.6s.7,1.7,1.6,1.7,1.6-.7,1.6-1.6c.1-.9-.6-1.7-1.6-1.7Z"/>
    <path class="st7" d="M54.4,91.5h-.8l-1.5-3.2h-4.6l-1.5,3.2h-.8l4.3-9.4h.4l4.5,9.4ZM49.9,83.3l-2,4.4h4l-2-4.4Z"/>
    <path class="st7" d="M60.3,91.5h-.7v-.5c-.7.5-1.1.6-1.8.6-1.8,0-3.1-1.4-3.1-3.2s1.3-3.2,3.1-3.2,1.1,0,1.8.5v-3.6h.7v9.4ZM59.6,86.5c-.7-.4-1.2-.6-1.8-.6-1.4,0-2.4,1-2.4,2.5s1.1,2.6,2.6,2.6,1,0,1.7-.6v-3.9h-.1Z"/>
    <path class="st7" d="M64,91.7h-.4l-2.8-6.3h.7l2.3,5.2,2.2-5.2h.6l-2.6,6.3Z"/>
    <path class="st7" d="M67.9,83.3h-.7v-1.1h.7v1.1ZM67.9,91.5h-.7v-6.2h.7v6.2Z"/>
    <path class="st7" d="M72.8,86.5c-.7-.5-1.1-.6-1.7-.6s-1.3.5-1.3,1c0,1.5,3.2.9,3.2,3.1s-.9,1.7-2,1.7-1.2-.2-1.9-.6v-.6c.8.4,1.3.6,1.9.6s1.3-.4,1.3-1.1c0-1.5-3.2-1-3.2-3s.9-1.7,2-1.7,1,.2,1.6.5v.7h0Z"/>
    <path class="st7" d="M76.7,91.7c-1.8,0-3.1-1.4-3.1-3.2s1.3-3.2,3.1-3.2,3.1,1.4,3.1,3.2c.1,1.8-1.3,3.2-3.1,3.2ZM76.7,85.9c-1.4,0-2.4,1.1-2.4,2.6s1,2.6,2.4,2.6,2.4-1.1,2.4-2.6-1-2.6-2.4-2.6Z"/>
    <path class="st7" d="M84.9,86.6c-.6-.5-.9-.7-1.2-.7-.6,0-1.3.6-2,1.8v3.9h-.7v-6.2h.7v1.6h0c.7-1.2,1.5-1.7,2.2-1.7s.8.2,1.4.7l-.4.6Z"/>
    <path class="st7" d="M86.5,94.7h-.7l2.2-4.3-2.6-5h.7l2.2,4.3,2.1-4.3h.7l-4.6,9.3Z"/>
    <path class="st7" d="M103,83.6c-1.2-.6-2.2-.9-3.3-.9-2.3,0-4.1,1.8-4.1,4.1s1.7,4.1,4.2,4.1,2.1-.3,3.3-1v.8c-1.1.6-2.2.9-3.3.9-2.9,0-5-2-5-4.8s2.3-4.8,4.9-4.8,2.2.3,3.3.8v.8Z"/>
    <path class="st7" d="M106.8,91.7c-1.8,0-3.1-1.4-3.1-3.2s1.3-3.2,3.1-3.2,3.1,1.4,3.1,3.2-1.3,3.2-3.1,3.2ZM106.8,85.9c-1.4,0-2.4,1.1-2.4,2.6s1,2.6,2.4,2.6,2.4-1.1,2.4-2.6-1-2.6-2.4-2.6Z"/>
    <path class="st7" d="M115.4,90.5h0c-.6.8-1.1,1.1-2.1,1.1s-2.3-.6-2.3-2.5v-3.8h.7v3.8c0,1.2.8,1.8,1.7,1.8s1.5-.5,2-1.3v-4.3h.7v6.2h-.7s0-1,0-1Z"/>
    <path class="st7" d="M118.1,86.4h0c.6-.9,1.2-1.2,2.1-1.2,1.3,0,2.3.9,2.3,2.5v3.8h-.7v-3.5c0-1.4-.6-2.1-1.7-2.1s-1.5.4-2,1.3v4.3h-.7v-6.2h.7s0,1.1,0,1.1Z"/>
    <path class="st7" d="M128.1,86.3c-.7-.3-1.1-.4-1.6-.4-1.4,0-2.3,1-2.3,2.6s.9,2.5,2.4,2.5,1,0,1.7-.4v.7c-.7.2-1.1.3-1.7.3-1.8,0-3-1.2-3-3.1s1.2-3.3,3-3.3.9,0,1.6.3v.8h-.1Z"/>
    <path class="st7" d="M129.9,83.3h-.7v-1.1h.7v1.1ZM129.9,91.5h-.7v-6.2h.7v6.2Z"/>
    <path class="st7" d="M132.2,91.5h-.7v-9.4h.7v9.4Z"/>
    <path class="st7" d="M137,86.5c-.7-.5-1.1-.6-1.7-.6s-1.3.5-1.3,1c0,1.5,3.2.9,3.2,3.1s-.9,1.7-2,1.7-1.2-.2-1.9-.6v-.6c.8.4,1.3.6,1.9.6s1.3-.4,1.3-1.1c0-1.5-3.2-1-3.2-3s.9-1.7,2-1.7,1,.2,1.6.5v.7h0Z"/>
    <path class="st7" d="M3.8,105.4c-1.8,0-3.1-1.4-3.1-3.2s1.3-3.2,3.1-3.2,3.1,1.4,3.1,3.2c.1,1.8-1.3,3.2-3.1,3.2ZM3.8,99.6c-1.4,0-2.4,1.1-2.4,2.6s1,2.6,2.4,2.6,2.4-1.1,2.4-2.6c.1-1.5-1-2.6-2.4-2.6Z"/>
    <path class="st7" d="M8.7,100.2h0c.6-.9,1.2-1.2,2.1-1.2,1.3,0,2.3.9,2.3,2.5v3.8h-.7v-3.5c0-1.4-.6-2.1-1.7-2.1s-1.5.4-2,1.3v4.3h-.6v-6.2h.7v1.1h-.1Z"/>
    <path class="st7" d="M20.5,95.9c2.3,0,3.1,1.2,3.1,2.4s-.6,1.8-1.8,2.3c.4.2.8.8,1.2,1.4l2.1,3.2h-.9l-1.6-2.6c-1.1-1.8-1.5-1.9-2.6-1.9h-1.3v4.5h-.7v-9.4h2.5ZM18.9,100.2h1.5c1.6,0,2.4-.7,2.4-1.8s-.8-1.8-2.5-1.8h-1.5v3.6h.1Z"/>
    <path class="st7" d="M25.8,101.9c-.2,1.6,1.1,2.8,2.5,2.8s1.5-.3,2.3-.9v.7c-.7.6-1.5.8-2.4.8-1.8,0-3.1-1.4-3.1-3.3s1.2-3.1,2.8-3.1,2.7.9,2.7,3h-4.8ZM29.9,101.4c-.2-1.2-.9-1.8-1.9-1.8s-1.8.7-2,1.8h3.9Z"/>
    <path class="st7" d="M32.4,105.2h-.7v-9.4h.7v9.4Z"/>
    <path class="st7" d="M34.7,97h-.7v-1.1h.7v1.1ZM34.7,105.2h-.7v-6.2h.7v6.2Z"/>
    <path class="st7" d="M41,99.6h-1.4c.6.5.9,1,.9,1.6,0,2.8-3.5,1.9-3.5,3s4-.3,4,2.3-1,1.8-2.8,1.8-2.7-.8-2.7-1.6.6-1.3,1.8-1.5h0c-.7-.2-1-.5-1-.9s.5-.8,1.2-1h0c-1.2-.4-1.6-1.3-1.6-2,0-1,.6-2.2,2.6-2.2h2.5v.5ZM38.4,105.6c-.8,0-2.2,0-2.2,1.1s.8,1.1,2.1,1.1,2.1-.5,2.1-1.2c0-.8-.9-1-2-1ZM38.2,99.6c-.9,0-1.6.7-1.6,1.6s.7,1.7,1.6,1.7,1.6-.7,1.6-1.6-.7-1.7-1.6-1.7Z"/>
    <path class="st7" d="M42.4,97h-.7v-1.1h.7v1.1ZM42.4,105.2h-.7v-6.2h.7v6.2Z"/>
    <path class="st7" d="M46.7,105.4c-1.8,0-3.1-1.4-3.1-3.2s1.3-3.2,3.1-3.2,3.1,1.4,3.1,3.2c.1,1.8-1.3,3.2-3.1,3.2ZM46.7,99.6c-1.4,0-2.4,1.1-2.4,2.6s1,2.6,2.4,2.6,2.4-1.1,2.4-2.6c0-1.5-1-2.6-2.4-2.6Z"/>
    <path class="st7" d="M55.3,104.2h0c-.6.8-1.1,1.1-2.1,1.1s-2.3-.6-2.3-2.5v-3.8h.7v3.8c0,1.2.8,1.8,1.7,1.8s1.5-.5,2-1.3v-4.3h.7v6.2h-.7v-1Z"/>
    <path class="st7" d="M60.7,100.2c-.7-.5-1.1-.6-1.7-.6s-1.3.5-1.3,1c0,1.5,3.2.9,3.2,3.1s-.9,1.7-2,1.7-1.2-.2-1.9-.6v-.6c.8.4,1.3.6,1.9.6s1.3-.4,1.3-1.1c0-1.5-3.2-1-3.2-3s.9-1.7,2-1.7,1,.2,1.6.5v.7h.1Z"/>
    <path class="st7" d="M70.7,96.5h-4.4v3.7h4.3v.6h-4.3v3.8h4.5v.6h-5.2v-9.4h5.1v.7Z"/>
    <path class="st7" d="M77,105.2h-.7v-.5c-.7.5-1.1.6-1.8.6-1.8,0-3.1-1.4-3.1-3.2s1.3-3.2,3.1-3.2,1.1,0,1.8.5v-3.6h.7v9.4ZM76.3,100.2c-.7-.4-1.2-.6-1.8-.6-1.4,0-2.4,1-2.4,2.5s1.1,2.6,2.6,2.6,1,0,1.7-.6v-3.9h0Z"/>
    <path class="st7" d="M82.7,104.2h0c-.6.8-1.1,1.1-2.1,1.1s-2.3-.6-2.3-2.5v-3.8h.7v3.8c0,1.2.8,1.8,1.7,1.8s1.5-.5,2-1.3v-4.3h.7v6.2h-.7v-1Z"/>
    <path class="st7" d="M89.1,100c-.7-.3-1.1-.4-1.6-.4-1.4,0-2.3,1-2.3,2.6s.9,2.5,2.4,2.5,1,0,1.7-.4v.7c-.7.2-1.1.3-1.7.3-1.8,0-3-1.2-3-3.1s1.2-3.3,3-3.3.9,0,1.6.3v.8h0Z"/>
    <path class="st7" d="M95,104.7h0c-.7.6-1,.7-1.2.7-.3,0-.4-.2-.4-.8-.7.5-1.3.8-1.9.8-.9,0-1.7-.7-1.7-1.6,0-1.6,1.8-2.2,3.6-2.2v-.8c0-.8-.5-1.3-1.4-1.3s-1.2.2-1.9.8v-.7c.8-.5,1.3-.7,2-.7s1.9.3,1.9,1.6v3.8c0,.2,0,.3.2.3s.5-.3.9-.5v.6h0ZM93.3,102.1c-1.6,0-2.9.6-2.9,1.7s.5,1,1.2,1,1.1-.2,1.7-.8c0,0,0-1.9,0-1.9Z"/>
    <path class="st7" d="M96.8,99.1h1.7v.5h-1.7v3.7c0,1.1,0,1.4.9,1.4s.6,0,1.1-.3v.6c0,0-.3,0-.6.2-.2,0-.5,0-.7,0-.7,0-1.4-.4-1.4-1.3v-4.4h-1.7v-.5h1.7v-1.5l.5-.6h.2v2.1Z"/>
    <path class="st7" d="M100.2,97h-.7v-1.1h.7v1.1ZM100.2,105.2h-.7v-6.2h.7v6.2Z"/>
    <path class="st7" d="M104.5,105.4c-1.8,0-3.1-1.4-3.1-3.2s1.3-3.2,3.1-3.2,3.1,1.4,3.1,3.2-1.3,3.2-3.1,3.2ZM104.5,99.6c-1.4,0-2.4,1.1-2.4,2.6s1,2.6,2.4,2.6,2.4-1.1,2.4-2.6-1-2.6-2.4-2.6Z"/>
    <path class="st7" d="M109.4,100.2h0c.6-.9,1.2-1.2,2.1-1.2,1.3,0,2.3.9,2.3,2.5v3.8h-.7v-3.5c0-1.4-.6-2.1-1.7-2.1s-1.5.4-2,1.3v4.3h-.7v-6.2h.7s0,1.1,0,1.1Z"/>
  </g>
  <g>
    <path class="st7" d="M6.8,38.4c2.2-2.5,4.3-3.5,7-3.5s7.9,1.9,7.9,8.3v13.7h-6.8v-13.2c0-3-1.5-4.3-3.4-4.3s-3,.9-4.7,3.6v13.9H0v-21.6h6.8v3.1h0Z"/>
    <path class="st7" d="M46.6,55.3c-1.9,1.1-4.5,2-6.4,2s-3.3-.7-3.8-2.4c-2.6,1.8-4.8,2.4-7.1,2.4-3.5,0-6-2.6-6-5.3,0-5.2,3.8-6.2,12.8-9,0-2-.8-3.6-3.8-3.6s-5.8,1.4-8,3.6v-5.5c2.8-1.7,6-2.6,9.4-2.6,5.4,0,9.1,1.8,9.1,6.6v9.8c0,1.1.4,1.5,1.1,1.5s1,0,2.6-1.2v3.7h.1ZM36.1,46.4c-4,1.5-6,2.4-6,4.5s1,2.3,2.2,2.3,2.6-.6,3.8-1.6v-5.2Z"/>
    <path class="st7" d="M63.5,41.3c-3-1.8-5.9-2.4-7.2-2.4s-2.4.2-2.4,1.7c0,2.4,10.7,2.5,10.7,9.7s-3.2,7-8.8,7-6.8-1.1-7.7-1.6v-4.8c2.2.9,4.4,1.8,7,1.8s3.3-.6,3.3-1.6c0-3.1-10.7-2.6-10.7-9.7s3.6-6.7,9-6.7,4.7.5,7,1.6v5h-.2Z"/>
    <path class="st7" d="M89.2,55.3c-1.9,1.1-4.5,2-6.4,2s-3.3-.7-3.8-2.4c-2.6,1.8-4.8,2.4-7.1,2.4-3.5,0-6-2.6-6-5.3,0-5.2,3.8-6.2,12.8-9,0-2-.8-3.6-3.8-3.6s-5.8,1.4-8,3.6v-5.5c2.8-1.7,6-2.6,9.4-2.6,5.4,0,9.1,1.8,9.1,6.6v9.8c0,1.1.4,1.5,1.1,1.5s1,0,2.6-1.2v3.7h.1ZM78.7,46.4c-4,1.5-6,2.4-6,4.5s1,2.3,2.2,2.3,2.6-.6,3.8-1.6v-5.2Z"/>
    <path class="st7" d="M109.2,55.8c-2.7,1-5,1.5-7.3,1.5-7.6,0-12.5-4.4-12.5-11.2s5.1-11.3,12.2-11.3,5,.6,7.3,1.4v5.1c-1.8-.9-3.8-1.5-5.5-1.5-4.1,0-6.7,2.4-6.7,6.2s2.6,6.4,6.5,6.4,3.1-.4,6.1-1.5v4.9h0Z"/>
    <path class="st7" d="M117.6,41.4h0c2.1-4.5,4.4-6.6,7-6.6s2.5.5,4.5,2l-1.9,6c-1.8-1.1-3-1.6-4-1.6-2.5,0-4.1,2.3-5.6,6.3v9.3h-6.8v-21.5h6.8s0,6.1,0,6.1Z"/>
    <path class="st7" d="M150.5,54.4c-3.9,2.9-8,2.9-9.7,2.9-7.6,0-12.5-4.4-12.5-11.2s4.7-11.3,11.4-11.3,11.5,4.5,11.2,12.3h-15.5c.2,3.8,2.9,6.1,7.1,6.1s4.8-.8,8-3.1c0,0,0,4.3,0,4.3ZM144.9,43.6c-.3-3-2.1-4.7-4.7-4.7s-4.4,1.7-4.7,4.7h9.4Z"/>
  </g>
  <g>
    <path class="st0" d="M173.7,33l-3.5,6.2h0c-.9,1.4-1.5,3.4-1.5,5.5,0,4.3,2.3,7.8,5,7.8s5-3.5,5-7.8-.6-4.1-1.5-5.5h0l-3.5-6.2Z"/>
    <path class="st1" d="M173.7,19.6l3.5-6.2h0c.9-1.4,1.5-3.4,1.5-5.5,0-4.3-2.3-7.8-5-7.8s-5,3.5-5,7.8.6,4.1,1.5,5.5h0l3.5,6.2Z"/>
    <path class="st8" d="M167,26.3l-6.2-3.5h0c-1.4-.9-3.4-1.5-5.5-1.5-4.3,0-7.8,2.3-7.8,5s3.5,5,7.8,5,4.1-.6,5.5-1.5h0l6.2-3.5Z"/>
    <path class="st5" d="M180.4,26.3l6.2,3.5h0c1.4.9,3.4,1.5,5.5,1.5,4.3,0,7.8-2.3,7.8-5s-3.5-5-7.8-5-4.1.6-5.5,1.5h0l-6.2,3.5Z"/>
    <path class="st6" d="M169,31l-6.9,1.9h0c-1.7.3-3.4,1.3-5,2.9-3,3-3.9,7.1-2,9.1,2,2,6,1.1,9.1-2,1.5-1.5,2.5-3.3,2.9-5h0l1.9-6.9Z"/>
    <path class="st3" d="M178.5,21.5l6.9-1.9h0c1.7-.3,3.4-1.3,5-2.9,3-3,3.9-7.1,2-9.1-2-2-6-1.1-9.1,2-1.5,1.5-2.5,3.3-2.9,5h0l-1.9,6.9Z"/>
    <path class="st2" d="M169,21.5l-1.9-6.9h0c-.3-1.7-1.3-3.4-2.9-5-3-3-7.1-3.9-9.1-2-2,2-1.1,6,2,9.1,1.5,1.5,3.3,2.5,5,2.9h0l6.9,1.9Z"/>
    <path class="st4" d="M178.5,31l1.9,6.9h0c.3,1.7,1.3,3.4,2.9,5,3,3,7.1,3.9,9.1,2,2-2,1.1-6-2-9.1-1.5-1.5-3.3-2.5-5-2.9h0l-6.9-1.9Z"/>
  </g>
</svg>